<svg id="Capa_1" data-name="Capa 1" xmlns="http://www.w3.org/2000/svg" viewBox="0 0 1440 668.8"><defs><style>.cls-1{fill:#3f75b8;}.cls-2{fill:#141d27;}</style></defs><rect class="cls-1" y="-6.94" width="1440" height="675.74"/><path class="cls-2" d="M0,222.54l60,11c60,10.55,180,33.09,300,43.64,120,11,240,11,360-27.25,120-38.63,240-114.44,360-125.71s240,44.06,300,71l60,27.35V-6.94H0Z"/><path class="cls-2" d="M1440,444.8l-60-10.7c-60-10.3-180-32.3-300-42.6-120-10.7-240-10.7-360,26.6C600,455.8,480,529.8,360,540.8s-240-43-300-69.3L0,444.8v224H1440Z"/></svg>