<svg id="Capa_1" data-name="Capa 1" xmlns="http://www.w3.org/2000/svg" viewBox="0 0 1440 668.8"><defs><style>.cls-1{fill:#c73f29;}.cls-2{fill:#fff;}</style></defs><rect class="cls-1" y="-6.94" width="1440" height="675.74"/><path class="cls-2" d="M0,221l60,11.24c60,10.82,180,33.93,300,44.75,120,11.24,240,11.24,360-27.94,120-39.61,240-117.34,360-128.9s240,45.17,300,72.8L1440,221V-14.31H0Z"/><path class="cls-2" d="M1440,444.8l-60-10.7c-60-10.3-180-32.3-300-42.6-120-10.7-240-10.7-360,26.6C600,455.8,480,529.8,360,540.8s-240-43-300-69.3L0,444.8v224H1440Z"/></svg>