<?xml version="1.0" encoding="utf-8"?>
<!-- Generator: Adobe Illustrator 25.4.1, SVG Export Plug-In . SVG Version: 6.00 Build 0)  -->
<svg version="1.1" id="Capa_1" xmlns="http://www.w3.org/2000/svg" xmlns:xlink="http://www.w3.org/1999/xlink" x="0px" y="0px"
	 viewBox="0 0 1440 320" style="enable-background:new 0 0 1440 320;" xml:space="preserve">
<style type="text/css">
	.st0{fill:#3F75B8;}
</style>
<path class="st0" d="M1440,0l-48,0c-48,0-144,0-240,0S960,0,864,0S672,0,576,0S384,0,288,0S96,0,48,0L0,0l0,256h48
	c48,0,144,0,240,5.3c96,5.7,192,15.7,288,0C672,245,768,203,864,208s192,59,288,42.7c96-15.7,192-101.7,240-144l48-42.7V0z"/>
</svg>
